<svg width="71" height="46" viewBox="0 0 71 46" fill="none" xmlns="http://www.w3.org/2000/svg">
<g clip-path="url(#clip0_930_641)">
<path d="M65.3247 12.1679L70.1556 7.65476C66.1616 1.74323 58.3114 -0.555706 51.2027 0.111725C45.1958 0.673215 39.1889 3.18403 35.375 7.85605C32.5888 11.2568 31.1056 15.6216 30.809 20.0075C30.6077 22.8785 30.8937 25.7813 30.5653 28.6418C30.2369 31.5022 29.1669 34.4474 26.8679 36.1848C25.3 37.3713 23.3189 37.8693 21.3696 38.1659C18.2019 38.6532 14.6423 38.5791 12.2162 36.492C9.66303 34.299 9.14392 30.6017 8.8049 27.2433C5.9233 27.148 3.05228 27.042 0.170673 26.9467C-0.54973 26.9255 1.18771 32.6358 2.07762 35.4538C2.33188 36.206 2.53317 36.7463 2.61792 36.9052C4.2918 40.0411 6.41063 42.2764 9.63125 43.7808C15.7759 46.6518 23.2129 46.7472 29.3787 43.855C33.0549 42.1281 36.3497 39.2783 37.8329 35.5068C40.1212 29.7012 37.8435 22.8997 39.9623 17.0306C41.6786 12.2844 46.2658 8.83071 51.2451 8.03615C56.2137 7.24159 61.4366 8.94725 65.3247 12.1679Z" fill="#064150"/>
<path d="M42.1023 32.6357L38.7334 41.503C38.7334 41.503 54.5398 52.5845 70.9184 39.9563L65.2293 33.9812C65.2187 33.9812 53.5758 44.4906 42.1023 32.6357Z" fill="#064150"/>
<path d="M17.5345 1.05462H36.6145C36.6463 1.01224 31.2963 8.67181 30.8301 8.50231C30.3746 8.32221 17.5345 8.50231 17.5345 8.50231V1.05462Z" fill="#064150"/>
</g>
<defs>
<clipPath id="clip0_930_641">
<rect width="70.9184" height="46" fill="white"/>
</clipPath>
</defs>
</svg>
